<svg width="20" height="20" viewBox="0 0 20 20" fill="none" xmlns="http://www.w3.org/2000/svg">
<path fill-rule="evenodd" clip-rule="evenodd" d="M7.00524 3.24217L5.83335 5H5.00002C3.15907 5 1.66669 6.49238 1.66669 8.33333V14.1667C1.66669 16.0076 3.15907 17.5 5.00002 17.5H15C16.841 17.5 18.3334 16.0076 18.3334 14.1667V8.33333C18.3334 6.49238 16.841 5 15 5H14.1667L12.9948 3.24217C12.6857 2.7785 12.1653 2.5 11.608 2.5H8.39199C7.83474 2.5 7.31435 2.7785 7.00524 3.24217ZM12.5 11.25C12.5 12.6307 11.3807 13.75 10 13.75C8.61931 13.75 7.50002 12.6307 7.50002 11.25C7.50002 9.86929 8.61931 8.75 10 8.75C11.3807 8.75 12.5 9.86929 12.5 11.25ZM10 5.83333C10.4603 5.83333 10.8334 5.46024 10.8334 5C10.8334 4.53976 10.4603 4.16667 10 4.16667C9.53978 4.16667 9.16669 4.53976 9.16669 5C9.16669 5.46024 9.53978 5.83333 10 5.83333Z" fill="#28303F"/>
</svg>
