<svg width="36" height="36" viewBox="0 0 36 36" fill="none" xmlns="http://www.w3.org/2000/svg">
<path d="M33 21L28.5915 17.8259C26.3007 16.1765 23.17 16.347 21.0719 18.2353L14.9281 23.7647C12.83 25.653 9.69929 25.8235 7.40851 24.1741L3 21M9 33H27C30.3137 33 33 30.3137 33 27V9C33 5.68629 30.3137 3 27 3H9C5.68629 3 3 5.68629 3 9V27C3 30.3137 5.68629 33 9 33ZM16.5 12.75C16.5 14.8211 14.8211 16.5 12.75 16.5C10.6789 16.5 9 14.8211 9 12.75C9 10.6789 10.6789 9 12.75 9C14.8211 9 16.5 10.6789 16.5 12.75Z" stroke="#E0E0E0" stroke-width="1.5" stroke-linecap="round"/>
</svg>
