<svg width="40" height="40" viewBox="0 0 40 40" fill="none" xmlns="http://www.w3.org/2000/svg">
<path d="M25 26.6667C25 26.6667 23.125 25 20 25C16.875 25 15 26.6667 15 26.6667M30 3.33333H10C6.31811 3.33333 3.33334 6.3181 3.33334 10V30C3.33334 33.6819 6.31811 36.6667 10 36.6667H30C33.6819 36.6667 36.6667 33.6819 36.6667 30V10C36.6667 6.3181 33.6819 3.33333 30 3.33333ZM28.3333 16.6667C28.3333 17.5871 27.5872 18.3333 26.6667 18.3333C25.7462 18.3333 25 17.5871 25 16.6667C25 15.7462 25.7462 15 26.6667 15C27.5872 15 28.3333 15.7462 28.3333 16.6667ZM15 16.6667C15 17.5871 14.2538 18.3333 13.3333 18.3333C12.4129 18.3333 11.6667 17.5871 11.6667 16.6667C11.6667 15.7462 12.4129 15 13.3333 15C14.2538 15 15 15.7462 15 16.6667Z" stroke="#28303F" stroke-width="1.5" stroke-linecap="round" stroke-linejoin="round"/>
</svg>
