<svg width="64" height="64" viewBox="0 0 64 64" fill="none" xmlns="http://www.w3.org/2000/svg">
<path opacity="0.4" d="M58.6666 32C58.6666 40.0356 55.1123 47.2411 49.4901 52.1302C44.8081 56.2017 38.6919 58.6666 31.9999 58.6666C25.308 58.6666 19.1918 56.2017 14.5097 52.1302C8.88751 47.2411 5.33325 40.0356 5.33325 32C5.33325 17.2724 17.2723 5.33331 31.9999 5.33331C46.7275 5.33331 58.6666 17.2724 58.6666 32Z" fill="#28303F"/>
<ellipse cx="32" cy="26.6666" rx="8" ry="8" fill="#28303F"/>
<path d="M49.4902 52.1302C46.8411 45.0447 40.0097 40 32 40C23.9903 40 17.1589 45.0447 14.5098 52.1302C19.1918 56.2017 25.308 58.6667 32 58.6667C38.6919 58.6667 44.8082 56.2017 49.4902 52.1302Z" fill="#28303F"/>
</svg>
